<svg version="1.1" id="Layer_1" xmlns="http://www.w3.org/2000/svg" xmlns:xlink="http://www.w3.org/1999/xlink" x="0px" y="0px"
	 width="100%" viewBox="0 0 1008 688" enable-background="new 0 0 1008 688" xml:space="preserve">
<path fill="#000000" opacity="1.000000" stroke="none" 
	d="
M427.000000,689.000000 
	C285.018524,689.000000 143.037033,689.000000 1.027778,689.000000 
	C1.027778,459.715088 1.027778,230.430191 1.027778,1.072641 
	C336.907745,1.072641 672.815491,1.072641 1008.861633,1.072641 
	C1008.861633,230.211105 1008.861633,459.422333 1008.861633,689.000000 
	C868.973328,689.000000 728.946411,689.000000 588.551880,688.739685 
	C590.025391,684.960510 586.848022,684.106140 584.970764,682.896179 
	C570.274231,673.423401 553.827271,667.876221 537.558472,661.928894 
	C535.796204,661.284607 533.566956,661.267151 532.345764,658.550049 
	C536.113647,656.651306 540.179016,655.938293 544.121094,655.024170 
	C589.870667,644.414490 635.647522,633.913452 681.120850,622.165894 
	C686.291748,620.830078 689.587646,621.552246 693.369507,625.397705 
	C708.222900,640.500793 726.620361,646.406128 747.516357,644.520264 
	C752.340942,644.084839 757.372009,643.458008 762.537781,640.153320 
	C746.871765,625.971008 729.295959,617.935791 708.718506,615.905212 
	C714.311157,614.084534 719.120422,610.807068 725.356995,613.534485 
	C741.973389,620.801025 759.387207,625.177429 777.598145,625.621216 
	C805.849976,626.309692 830.746216,616.326904 853.904907,601.079102 
	C854.944824,600.394470 856.319092,599.780334 856.078186,597.798584 
	C855.001770,597.302979 853.853210,596.658203 852.629211,596.228516 
	C839.712341,591.694275 826.249634,590.418945 812.745239,590.688354 
	C790.774963,591.126587 769.464600,595.590515 748.731750,602.877625 
	C746.760498,603.570435 744.637390,604.930298 742.270691,603.833313 
	C742.655273,602.330627 743.606445,601.921448 744.518799,601.574158 
	C764.831482,593.841553 783.931396,583.675476 802.613892,572.668213 
	C805.005127,571.259399 807.506531,571.044373 810.298950,571.353088 
	C825.924133,573.080627 841.495361,573.200928 857.040039,570.110657 
	C887.377075,564.079712 910.958008,547.279785 930.831909,524.432739 
	C931.666504,523.473267 932.809692,522.561829 932.491821,520.906067 
	C930.808838,519.181152 928.557007,519.506958 926.451721,519.474487 
	C914.861511,519.295349 903.561829,521.331909 892.415710,524.255554 
	C869.495361,530.267517 849.406982,541.951843 830.268250,555.514526 
	C828.612976,556.687561 827.103271,558.419006 824.510071,558.067871 
	C825.154175,555.621582 827.041992,554.692139 828.545227,553.481934 
	C843.247314,541.645630 856.867065,528.670166 869.287048,514.467468 
	C871.769714,511.628387 874.579529,510.263641 878.200867,509.639008 
	C893.548096,506.991882 908.374512,502.648254 922.264465,495.436798 
	C949.058289,481.525696 965.924927,459.034424 977.259705,431.775696 
	C977.812988,430.444946 978.559265,428.978577 977.207581,427.596497 
	C975.331421,426.930054 973.609497,427.602844 971.857117,428.144806 
	C958.364807,432.317474 945.955566,438.687103 934.416138,446.761108 
	C918.008789,458.240875 904.556091,472.749786 892.133301,488.299469 
	C890.458984,490.395233 888.918335,492.693207 885.868347,494.021912 
	C885.903320,491.711639 886.892639,490.541321 887.727600,489.347961 
	C897.017456,476.070892 905.258789,462.123627 911.968933,447.425476 
	C915.582397,439.510254 921.049011,434.999329 928.721924,431.640869 
	C966.523193,415.095184 988.483032,386.058502 995.386597,345.532349 
	C995.921082,342.394836 997.187988,339.098785 995.392090,334.892975 
	C960.279602,353.383240 941.159973,384.826630 925.015442,419.573273 
	C923.284668,416.410645 924.573547,414.765503 925.137695,413.155212 
	C931.097839,396.143158 935.898926,378.794342 938.366516,360.956146 
	C939.433411,353.244110 942.381714,347.489624 948.740479,343.299988 
	C949.155334,343.026642 949.507141,342.659088 949.896851,342.345947 
	C984.180176,314.797180 996.089844,278.475342 991.687317,235.759857 
	C991.534363,234.276382 991.488586,232.712128 989.688049,231.994186 
	C987.183655,232.284409 985.680298,234.181091 984.105164,235.831146 
	C979.036804,241.140808 974.428040,246.822708 970.335999,252.935867 
	C956.222778,274.019531 949.383667,297.705292 945.217468,322.386353 
	C944.764343,325.070801 945.118286,328.197144 942.538208,330.472687 
	C941.342468,328.425903 941.591553,326.542236 941.784607,324.771515 
	C943.765076,306.605316 942.670593,288.451599 940.668518,270.422394 
	C939.682800,261.545624 940.599182,254.110153 946.984497,247.555069 
	C949.274048,245.204697 950.830383,242.130173 952.667847,239.350723 
	C974.437378,206.421249 974.033447,171.744446 960.751648,136.073853 
	C960.246582,134.717499 959.798340,133.020416 957.933044,132.967026 
	C956.378296,132.922516 955.780762,134.326447 955.061157,135.436493 
	C950.603210,142.313766 946.879700,149.564560 944.177612,157.307190 
	C935.645081,181.756561 934.906250,206.886932 937.693848,232.322159 
	C937.878418,234.005997 938.887878,235.873047 937.028625,237.337616 
	C935.158813,236.705414 935.117615,235.071259 934.871826,233.667908 
	C931.092285,212.087189 924.482727,191.334534 916.416016,171.026474 
	C915.101013,167.715958 914.970215,164.855362 916.264526,161.467194 
	C923.583618,142.307281 928.520325,122.737061 925.739929,101.932213 
	C922.825623,80.125290 912.879761,61.496998 899.886963,44.227402 
	C899.005066,43.055283 897.941162,41.706051 896.177002,42.298454 
	C894.721375,42.787270 894.603210,44.261211 894.271179,45.567169 
	C892.174316,53.813339 890.701965,62.162453 890.335815,70.668533 
	C889.350464,93.555870 894.402039,115.290924 902.949036,136.363541 
	C903.904541,138.719345 905.411377,141.031311 904.918274,144.682724 
	C902.213318,142.035309 901.059875,139.277969 899.781128,136.682602 
	C895.060242,127.101151 889.682068,117.907928 883.758301,109.030106 
	C881.164307,105.142616 878.717224,101.227386 877.319946,96.684464 
	C866.408325,61.208935 843.075439,37.184071 809.129639,23.024469 
	C807.235046,22.234177 805.159180,20.430490 803.136169,22.295706 
	C801.408936,23.888203 802.492065,26.045254 802.969849,27.952206 
	C812.196411,64.782433 833.889343,90.824501 869.576721,104.634338 
	C873.513611,106.157799 876.350525,108.510239 878.623840,112.015930 
	C887.896423,126.314674 895.340942,141.583923 902.747192,156.877823 
	C903.216309,157.846603 904.036133,158.909088 902.924561,160.110870 
	C900.842163,159.776505 900.132996,157.906631 899.046082,156.540619 
	C880.645203,133.413528 856.953308,118.543854 828.415955,111.239349 
	C826.702454,110.800758 824.777161,109.788681 823.202209,111.352287 
	C821.538391,113.004135 822.753418,114.826546 823.461121,116.442123 
	C838.915039,151.722061 865.184509,172.156693 904.177734,174.785110 
	C908.810852,175.097412 911.421204,176.689102 913.056946,181.071503 
	C919.062622,197.161850 924.105957,213.522690 927.409180,230.378860 
	C928.468201,235.782745 930.463013,241.086929 930.444153,247.377777 
	C927.682922,245.931213 927.475525,243.803772 926.711914,242.093781 
	C914.643494,215.070786 894.606079,195.846954 868.491333,182.576965 
	C867.202576,181.922089 865.746582,180.948898 864.300415,182.126190 
	C862.930054,183.241776 863.294739,184.889374 863.564026,186.334930 
	C865.678162,197.686096 868.817200,208.701035 874.488525,218.860550 
	C886.333801,240.080261 904.077332,254.143356 926.982178,261.782867 
	C931.074524,263.147827 933.286194,265.113007 933.774353,269.694214 
	C936.096130,291.483643 935.729675,313.262878 934.158325,335.059906 
	C934.110962,335.716705 933.739014,336.325989 932.718201,336.333923 
	C930.943787,334.645050 931.125305,332.215210 930.700439,329.996429 
	C925.170715,301.115051 910.869629,277.242920 889.201538,257.637787 
	C885.871582,254.624802 884.002502,255.459015 883.445923,259.962830 
	C881.228577,277.906372 883.878479,295.175476 891.263672,311.631226 
	C898.941650,328.739349 911.611328,341.533264 927.109619,351.682373 
	C930.202454,353.707733 931.749451,355.841705 931.142944,359.844543 
	C927.986938,380.674805 922.018005,400.758881 915.471252,420.702332 
	C915.041748,422.010681 915.019348,423.731049 912.227966,424.097778 
	C915.905151,389.841614 908.114197,358.954468 887.002930,331.849579 
	C883.935364,333.115662 883.288513,334.895416 882.711121,336.598724 
	C877.093262,353.171539 875.687073,370.082825 878.932312,387.309174 
	C882.460876,406.039703 891.919312,421.772675 904.119812,435.997009 
	C906.838684,439.166870 906.934998,441.691528 905.127197,445.354370 
	C896.323486,463.191650 885.691833,479.893066 874.284241,496.131805 
	C873.406128,497.381927 872.931152,499.297668 870.115662,499.091797 
	C881.795227,467.137634 882.854553,435.433655 869.654236,403.610504 
	C867.993774,404.199829 867.448486,404.259491 867.090332,404.549866 
	C866.450867,405.068298 865.848267,405.670288 865.361511,406.333618 
	C852.172607,424.310486 846.074890,444.528137 846.723633,466.731049 
	C847.154236,481.467224 851.425964,495.277405 858.179749,508.288513 
	C860.041931,511.875916 859.399170,514.209412 856.803284,517.100342 
	C842.252625,533.304443 825.710388,547.224915 808.214783,560.073792 
	C807.013916,560.955750 805.964905,562.700928 803.958435,561.883911 
	C803.467163,560.225037 804.696899,559.368286 805.470703,558.373596 
	C811.831909,550.195740 817.579041,541.642273 821.857971,532.160706 
	C829.667419,514.855774 833.164856,496.696503 832.648987,477.749298 
	C832.590759,475.613129 832.689697,473.069061 830.544250,471.926605 
	C828.193848,470.674988 826.538879,472.868317 824.867676,474.083435 
	C817.380310,479.527191 811.276855,486.360840 805.816589,493.755219 
	C789.849976,515.377625 784.725586,539.726318 788.075623,566.083801 
	C788.615112,570.328369 787.842834,573.055420 783.669861,575.381470 
	C762.944824,586.933655 741.264160,596.288879 719.047791,604.487671 
	C717.763916,604.961426 716.420654,606.096375 714.982727,604.567627 
	C716.052673,602.175293 718.444824,601.459045 720.340515,600.272034 
	C745.616699,584.444458 760.733276,561.179749 769.534058,533.280518 
	C770.067383,531.590027 770.962769,529.620483 769.465515,528.056946 
	C767.928040,526.451660 766.044128,527.395569 764.331665,528.008179 
	C747.521790,534.021667 733.088684,543.551331 721.384888,557.102112 
	C709.117493,571.305359 701.555725,587.795898 697.858704,606.092712 
	C697.205688,609.324585 695.771973,610.806946 692.506287,611.531982 
	C679.832764,614.345581 667.147156,617.096985 654.462341,619.859009 
	C606.958496,630.202637 559.264343,639.691101 512.034241,651.271667 
	C509.035980,652.006775 506.235809,652.028931 503.220490,651.258606 
	C493.547699,648.787720 483.852692,646.377136 474.097687,644.259216 
	C424.968628,633.592346 375.843994,622.900879 326.642609,612.576599 
	C320.251038,611.235474 317.782990,608.448181 316.388397,602.177490 
	C308.198212,565.350464 285.324036,541.214661 250.527435,527.807190 
	C248.912064,527.184814 247.237076,526.009399 244.440689,527.800415 
	C253.255966,560.734741 270.779541,587.281921 302.729889,604.706787 
	C298.035156,605.936035 295.631348,604.109924 293.126984,603.243347 
	C271.813751,595.868164 251.475204,586.335754 231.837799,575.279968 
	C229.231491,573.812622 226.478149,572.550049 227.064331,568.581543 
	C227.622116,564.805115 227.716873,560.959229 227.990433,557.142090 
	C230.423752,523.189636 216.989822,496.254730 191.445389,474.719666 
	C189.593109,473.158081 187.741302,471.302673 183.750534,471.496063 
	C180.825928,506.100464 191.138382,536.287170 213.503662,562.644958 
	C211.646423,563.647095 210.895126,562.839722 210.110077,562.288940 
	C192.327621,549.811768 175.550446,536.170532 161.005814,519.935669 
	C154.713638,512.912354 154.761398,512.966125 158.645996,504.474091 
	C173.837036,471.265533 172.162598,439.240173 151.738068,408.594238 
	C150.584000,406.862640 149.696457,404.697174 146.056442,404.309906 
	C132.902924,435.214050 133.649384,466.453827 144.457794,498.129028 
	C143.201050,497.865784 142.552811,497.608948 142.190033,497.134033 
	C129.404633,480.395386 118.397507,462.572540 109.380005,443.519165 
	C107.898735,440.389343 108.834991,438.064026 110.920929,435.845703 
	C114.931061,431.580933 118.313110,426.834747 121.636421,422.039093 
	C139.738876,395.916626 142.815018,367.690613 133.371002,337.747192 
	C132.744827,335.761810 132.314926,333.163696 129.753494,332.790070 
	C127.382034,332.444153 126.472244,334.744293 125.378052,336.342682 
	C107.706047,362.157318 99.207970,390.370575 103.090958,421.814789 
	C103.221115,422.868683 103.653831,424.212341 101.947212,424.564423 
	C100.563164,423.831238 100.372375,422.396393 99.960808,421.187164 
	C93.352226,401.769928 87.967865,382.054443 84.588837,361.776550 
	C83.679802,356.321381 85.091209,353.335052 89.624458,350.348633 
	C105.379379,339.969635 117.814301,326.572845 125.421471,309.016785 
	C132.298218,293.146423 134.211792,276.679077 131.879135,259.632202 
	C131.676956,258.154694 131.635376,256.482697 129.961548,255.846451 
	C128.221527,255.185059 127.143929,256.586243 126.122635,257.594513 
	C122.448174,261.222168 118.684326,264.782959 115.275703,268.652191 
	C99.666893,286.370453 88.605026,306.376282 84.700684,329.970093 
	C84.277870,332.525116 84.914108,335.561523 82.605392,337.771759 
	C80.948868,336.385162 81.097313,334.800018 81.004768,333.350739 
	C79.761673,313.885132 80.165359,294.455353 81.307907,274.976074 
	C81.810165,266.413208 85.032410,262.744904 93.107430,259.721252 
	C125.938080,247.427872 145.090363,223.207916 151.406357,188.814453 
	C151.799408,186.674133 152.836792,183.853363 150.492569,182.331467 
	C148.460388,181.012146 146.324875,182.685043 144.472351,183.705597 
	C119.247444,197.602005 99.242264,216.431000 87.998558,243.545013 
	C87.478539,244.799026 87.322983,246.552368 85.480186,246.911545 
	C84.133263,246.048569 84.625824,244.777069 84.842415,243.738251 
	C89.402122,221.868515 95.206390,200.348587 102.891731,179.349533 
	C104.118820,175.996689 106.328827,174.935135 109.710571,174.748260 
	C147.096054,172.682266 173.661407,154.411331 189.858704,120.840096 
	C191.239243,117.978722 194.284683,114.637665 191.674240,111.721558 
	C189.334366,109.107712 185.663177,111.475945 182.754303,112.306999 
	C155.807358,120.005775 133.588394,134.819397 116.199104,156.846268 
	C114.969452,158.403839 114.138840,160.628220 111.416962,160.885773 
	C111.186615,159.206223 111.823845,158.058929 112.372223,156.874496 
	C118.956268,142.653641 126.136871,128.774567 134.397385,115.419334 
	C138.098785,109.435081 142.737411,105.657387 149.233582,103.003067 
	C182.644928,89.351318 203.029465,64.327156 211.999557,29.652233 
	C212.573975,27.431778 213.775818,24.924252 211.710678,23.069950 
	C209.431366,21.023329 206.916428,22.689386 204.700516,23.641722 
	C171.606949,37.864445 148.948914,61.669113 138.194214,96.336868 
	C137.103729,99.852028 135.851761,103.267220 133.720200,106.315369 
	C125.387779,118.230827 118.693817,131.079117 112.218216,144.055771 
	C111.371696,145.752136 110.984703,147.916107 108.435417,148.771698 
	C108.057884,146.910156 108.832680,145.460495 109.415695,143.972092 
	C111.116425,139.630249 112.799339,135.281448 114.490875,130.935989 
	C122.772873,109.660072 126.527542,87.680176 124.702583,64.847351 
	C124.197845,58.532360 123.246910,52.275879 121.494629,46.177181 
	C121.060326,44.665592 120.961174,42.607647 118.893990,42.296806 
	C116.930046,42.001488 116.013199,43.744278 115.020920,45.022625 
	C113.285416,47.258476 111.606842,49.547314 110.041023,51.904694 
	C96.554703,72.208633 87.968315,94.020004 89.307007,118.933487 
	C90.056297,132.878082 93.204956,146.288406 98.267914,159.231125 
	C100.137154,164.009552 100.306671,168.285950 98.352203,173.136246 
	C90.117325,193.572189 83.816467,214.597610 80.044044,236.345245 
	C79.817955,237.648621 79.830109,239.417160 77.830711,239.696533 
	C76.381805,238.197754 76.978767,236.516281 77.192589,234.916367 
	C79.476784,217.824799 79.825340,200.668793 77.602722,183.594589 
	C75.411613,166.762360 70.242836,150.786240 61.315243,136.194458 
	C60.477123,134.824570 59.766842,133.020935 57.762821,133.047379 
	C56.176392,133.068314 55.622196,134.480835 55.156929,135.729340 
	C46.688225,158.454300 42.686470,181.622559 48.210171,205.742233 
	C52.203987,223.181564 61.101429,238.168793 71.776672,252.172363 
	C74.751816,256.075104 75.656799,259.948822 75.199905,264.656189 
	C73.154213,285.733063 72.324142,306.844788 73.980820,328.000031 
	C74.052246,328.912109 74.339470,330.089172 72.850754,330.404541 
	C71.035423,329.585663 70.904350,327.876831 70.739502,326.237793 
	C69.971001,318.596680 68.342499,311.110931 66.536087,303.671295 
	C60.218658,277.653351 49.407055,253.959167 30.378374,234.592010 
	C29.062969,233.253235 27.964441,231.327438 25.367504,231.688293 
	C25.063158,232.432968 24.561855,233.164978 24.475460,233.943069 
	C22.131884,255.049820 23.060085,275.828461 30.647396,295.960419 
	C38.638096,317.162689 53.814182,332.678375 70.872070,346.633362 
	C74.234627,349.384216 75.862488,352.491791 76.543472,356.659088 
	C79.932411,377.397797 84.657150,397.818298 91.738579,417.644623 
	C92.105003,418.670532 92.892654,419.743652 91.688118,420.815948 
	C89.945114,420.346252 89.640953,418.738861 89.072975,417.433197 
	C84.613556,407.182037 79.456169,397.302002 73.742378,387.691345 
	C61.434513,366.989349 45.635326,349.717743 24.761353,337.381989 
	C23.392790,336.573242 21.900127,335.187744 20.196014,336.378632 
	C18.751146,337.388367 19.192360,339.162842 19.412863,340.574280 
	C23.135828,364.404449 31.156353,386.314362 47.820953,404.417938 
	C60.397785,418.080811 76.151283,426.980652 92.750290,434.578064 
	C96.650116,436.363037 99.232262,438.947418 101.032074,442.730804 
	C107.764755,456.883636 115.289238,470.587524 124.088486,483.591064 
	C126.423203,487.041290 129.531281,490.147400 130.194778,494.717010 
	C128.156464,493.323547 126.390755,491.683105 124.840820,489.859253 
	C121.389557,485.798157 118.175629,481.530273 114.637283,477.549011 
	C95.653770,456.189392 73.817230,438.822723 46.425220,429.366669 
	C43.863670,428.482422 41.309811,426.974152 38.371674,427.942108 
	C38.218979,428.629242 37.969109,429.124542 38.038525,429.570129 
	C38.190922,430.548218 38.386292,431.551392 38.770309,432.456909 
	C47.759125,453.653534 59.974659,472.444183 78.859093,486.284943 
	C95.183990,498.249756 113.554001,505.355530 133.358688,508.672119 
	C140.001266,509.784515 144.908966,512.603088 149.319794,517.614319 
	C160.781250,530.636047 173.099686,542.814880 187.011200,553.291382 
	C188.602875,554.490051 190.552490,555.666565 191.041794,558.238586 
	C189.048050,558.540649 188.002777,557.375061 186.811020,556.583130 
	C181.261505,552.895264 175.786102,549.089355 170.146225,545.545227 
	C145.291641,529.926331 118.624847,519.926819 88.870384,519.686096 
	C86.926903,519.670349 84.860992,519.439209 83.448952,521.209045 
	C83.516548,521.659668 83.478081,522.032349 83.629929,522.294922 
	C84.044975,523.012512 84.475525,523.739319 85.013313,524.365051 
	C98.287903,539.809814 113.373405,552.966431 132.027344,561.637268 
	C155.451111,572.525208 180.108566,574.504517 205.333679,571.372620 
	C209.534836,570.850952 212.402298,572.429565 215.515945,574.203552 
	C233.038773,584.187012 250.777145,593.717651 269.631287,601.023010 
	C271.814026,601.868774 274.305542,602.495605 275.992676,604.721985 
	C273.818817,605.987488 272.121490,605.158508 270.464172,604.527954 
	C243.507874,594.272339 215.795349,588.782227 186.831711,591.376953 
	C177.415695,592.220459 168.133835,593.746643 159.366928,598.072083 
	C159.856461,598.923950 160.008636,599.438171 160.349976,599.734009 
	C161.227997,600.494995 162.156937,601.208435 163.122879,601.855103 
	C203.450760,628.853943 245.861908,632.970520 290.323547,613.198364 
	C296.169342,610.598755 300.570435,613.739197 305.654755,615.734253 
	C285.581238,618.784546 268.047638,626.582825 251.944611,640.639343 
	C264.275909,644.998901 275.274902,645.775574 286.424713,644.063110 
	C301.336426,641.772827 313.591431,634.400208 323.845062,623.544189 
	C325.848022,621.423523 327.681305,620.569824 330.821228,621.373230 
	C349.693207,626.202271 368.621429,630.815979 387.563171,635.367188 
	C417.514832,642.563721 447.496429,649.635559 477.446930,656.836975 
	C479.186279,657.255188 481.553162,657.043396 482.383850,660.125793 
	C476.760071,662.177429 471.143860,664.138245 465.593018,666.269470 
	C453.306030,670.987061 441.038879,675.769348 429.973114,683.072571 
	C427.899139,684.441284 425.514038,685.785706 427.000000,689.000000 
M332.944794,341.370880 
	C367.248505,335.852386 399.488556,323.863251 431.188080,310.136169 
	C454.249146,300.149841 477.028687,289.411957 501.186920,282.210754 
	C527.544678,274.353973 553.607056,273.615814 579.031738,286.103973 
	C609.885498,301.258789 629.011292,333.315247 609.358704,368.774597 
	C608.817261,369.751587 608.202515,370.892975 609.320068,372.082306 
	C610.970093,373.180237 612.493225,372.030731 613.929565,371.428375 
	C625.915039,366.401825 637.702698,360.944214 649.043396,354.578308 
	C695.037292,328.760437 734.487854,295.119751 768.369690,254.799957 
	C788.382263,230.984772 805.696838,205.380157 819.687073,177.587875 
	C824.333313,168.357941 823.394165,167.093643 813.058411,166.380920 
	C772.563965,163.588531 732.107056,165.268661 691.767883,168.610001 
	C656.444519,171.535843 621.210388,175.657349 586.195679,181.408875 
	C541.681458,188.720779 497.264008,196.542725 453.225494,206.363419 
	C416.511749,214.550705 380.001831,223.562271 343.614349,233.122650 
	C297.537720,245.228729 251.935410,258.817383 206.917328,274.396729 
	C202.631714,275.879822 199.715973,278.443756 198.123398,282.562134 
	C196.925201,285.660675 195.654800,288.765259 194.847672,291.975525 
	C190.217117,310.393524 196.937943,327.477936 212.063293,335.951111 
	C217.931305,339.238342 224.314789,341.265137 230.849960,342.531494 
	C264.651611,349.081451 298.400757,347.298096 332.944794,341.370880 
M623.891846,460.297302 
	C639.513062,452.442383 655.076355,444.469696 670.767151,436.756226 
	C706.943542,418.972260 744.829163,409.911926 785.385071,414.565582 
	C788.300171,414.900085 791.479736,415.684143 794.404968,414.055603 
	C793.778503,412.084015 792.279968,411.526886 791.050354,410.746277 
	C771.471741,398.317566 749.825073,392.176117 726.921570,390.512726 
	C695.122498,388.203278 664.225281,393.385162 633.779236,402.371490 
	C608.729736,409.765076 583.790833,417.888733 557.293213,418.577942 
	C547.064758,418.843964 536.950623,418.031128 527.233093,414.756622 
	C514.659302,410.519623 503.939728,403.729767 498.856873,390.703644 
	C491.204132,371.091431 502.839355,346.919159 524.255737,338.758667 
	C545.530090,330.652313 565.455383,334.795685 584.144775,346.949036 
	C585.676819,347.945282 586.807312,350.075775 589.432373,349.213959 
	C589.500549,348.393646 589.664124,347.581116 589.609985,346.783356 
	C589.542786,345.794800 589.361267,344.801636 589.115662,343.839447 
	C585.059875,327.955475 575.056152,317.258148 560.054932,311.225647 
	C544.070312,304.797729 527.448853,305.005280 510.867157,307.911621 
	C482.944305,312.805847 457.657532,324.804260 432.916595,338.021515 
	C392.997375,359.347412 351.656952,376.421326 306.237640,381.915741 
	C269.519104,386.357544 234.162552,382.100555 200.445190,366.354340 
	C198.585358,365.485748 196.569717,363.398041 194.505402,365.123138 
	C192.249359,367.008331 193.339584,369.731506 193.984894,372.121429 
	C196.964783,383.157593 202.704285,392.659668 210.732544,400.664337 
	C230.947601,420.819977 256.374664,428.765167 283.998169,430.564850 
	C309.084808,432.199249 333.438843,427.745850 357.161285,419.622009 
	C358.766754,419.072235 360.306427,417.636292 362.251038,418.813538 
	C362.250793,420.869995 360.632751,421.669739 359.438904,422.743835 
	C333.082977,446.455719 301.695465,454.631866 267.020996,452.673035 
	C263.002228,452.445984 258.919739,451.541107 254.967041,452.985016 
	C255.070770,456.110962 257.179993,457.239532 258.791718,458.483673 
	C264.985352,463.264679 271.103699,468.195923 277.646149,472.463989 
	C328.299683,505.508423 383.643585,521.295959 444.311127,517.781799 
	C472.931427,516.124023 500.738647,510.528992 527.969360,501.855804 
	C561.091370,491.306274 592.441223,476.610748 623.891846,460.297302 
M468.777588,192.118195 
	C520.162598,179.984283 571.678101,168.461990 624.356384,160.064774 
	C622.939880,157.150665 621.171326,156.619247 619.540222,155.879471 
	C586.923157,141.085602 553.621704,127.916901 520.626282,114.021156 
	C501.571899,105.996567 482.765564,106.356934 464.249725,113.715317 
	C431.135529,126.875183 398.595093,141.436768 366.176788,156.243454 
	C362.422272,157.958282 359.614319,160.725952 357.351013,164.124924 
	C344.243042,183.809708 331.070404,203.451828 318.072174,223.208740 
	C316.451965,225.671356 313.005707,228.622940 315.324158,231.510208 
	C317.403717,234.099991 320.909882,231.396103 323.636597,230.618088 
	C371.513367,216.957413 419.654694,204.301010 468.777588,192.118195 
z"/>
<path fill="#000000" opacity="1.000000" stroke="none" 
	d="
M447.468658,689.000000 
	C451.207062,684.657654 457.054108,683.310181 462.276031,680.958801 
	C475.794006,674.871826 489.752075,669.899902 504.077728,666.011841 
	C506.348419,665.395569 508.586548,664.990540 510.951996,665.666565 
	C529.721802,671.030518 547.951355,677.793640 565.393188,686.602478 
	C566.265503,687.043030 567.004578,687.747192 567.902832,688.664307 
	C527.979126,689.000000 487.958221,689.000000 447.468658,689.000000 
z"/>
<path fill="#000000" opacity="1.000000" stroke="none" 
	d="
M300.911011,272.072693 
	C277.517242,278.590424 254.208328,283.838196 230.741974,291.556641 
	C231.451569,287.594330 233.991776,287.572510 235.760391,286.920654 
	C287.070068,268.009918 339.517120,252.851288 392.547699,239.651230 
	C453.815399,224.400833 515.667236,211.995941 577.989197,201.921463 
	C616.125427,195.756683 654.378052,190.460876 692.866638,187.015823 
	C712.120728,185.292419 731.442261,184.789871 750.751404,184.105560 
	C752.876892,184.030243 755.047119,183.985382 757.111877,185.838989 
	C738.489441,189.949539 719.370300,190.534210 700.644348,193.745728 
	C681.445984,197.038269 662.172791,199.896851 642.926331,202.906387 
	C623.837952,205.891190 604.837830,209.360870 585.858887,212.972443 
	C566.723999,216.613724 547.526672,219.925735 528.384033,223.527664 
	C509.407532,227.098358 490.457031,230.809143 471.510193,234.535080 
	C452.562317,238.261200 433.602386,241.935684 414.704315,245.902512 
	C395.641052,249.904007 376.615845,254.100021 357.631989,258.463318 
	C338.814392,262.788422 320.069122,267.428406 300.911011,272.072693 
z"/>
<path fill="#000000" opacity="1.000000" stroke="none" 
	d="
M448.790588,184.251038 
	C438.749146,175.859650 428.986145,167.692444 419.238129,159.537796 
	C421.052551,156.483582 423.675995,156.119919 425.873260,155.141541 
	C444.415222,146.885498 462.985382,138.692795 481.529694,130.441986 
	C487.909790,127.603325 494.212738,127.266045 500.893524,129.723557 
	C523.841309,138.164810 546.875610,146.370926 569.863525,154.703384 
	C571.358643,155.245331 573.152344,155.471588 574.020325,157.570053 
	C570.859741,159.582230 567.152649,159.631195 563.714966,160.452255 
	C528.446838,168.875839 493.162903,177.233597 457.889618,185.635925 
	C454.767487,186.379639 451.684448,187.345337 448.790588,184.251038 
z"/>
<path fill="#000000" opacity="1.000000" stroke="none" 
	d="
M362.650604,207.470718 
	C368.072754,197.919830 373.455322,188.742554 378.607513,179.437729 
	C382.563416,172.293350 390.051880,170.836914 396.573273,167.804947 
	C397.694092,167.283875 398.848358,167.928391 399.774750,168.724579 
	C408.346161,176.091339 416.920013,183.455276 425.474365,190.841797 
	C426.098328,191.380524 426.602539,192.078705 426.281952,193.156281 
	C425.659027,194.530563 424.117584,194.363068 422.915070,194.689590 
	C404.319885,199.738327 385.721954,204.778519 367.082855,209.661102 
	C365.522064,210.069946 362.181549,212.817215 362.650604,207.470718 
z"/>
</svg>